<?xml version="1.0" encoding="UTF-8" standalone="no"?>
<svg
   xmlns:dc="http://purl.org/dc/elements/1.1/"
   xmlns:cc="http://creativecommons.org/ns#"
   xmlns:rdf="http://www.w3.org/1999/02/22-rdf-syntax-ns#"
   xmlns:svg="http://www.w3.org/2000/svg"
   xmlns="http://www.w3.org/2000/svg"
   xmlns:xlink="http://www.w3.org/1999/xlink"
   xmlns:sodipodi="http://sodipodi.sourceforge.net/DTD/sodipodi-0.dtd"
   xmlns:inkscape="http://www.inkscape.org/namespaces/inkscape"
   inkscape:export-ydpi="38.395004"
   inkscape:export-xdpi="38.395004"
   inkscape:export-filename="/home/aryan/Documents/bpgc_confessions/public/images/96.png"
   sodipodi:docname="logo.svg"
   inkscape:version="1.0.1 (0767f8302a, 2020-10-17)"
   id="svg8"
   version="1.1"
   viewBox="0 0 132.29997 269.87912"
   height="269.87912mm"
   width="132.29997mm">
  <defs
     id="defs2">
    <linearGradient
       id="linearGradient933"
       inkscape:collect="always">
      <stop
         id="stop927"
         offset="0"
         style="stop-color:#360033;stop-opacity:1" />
      <stop
         id="stop931"
         offset="1"
         style="stop-color:#0b8793;stop-opacity:1" />
    </linearGradient>
    <linearGradient
       inkscape:collect="always"
       id="linearGradient896-6">
      <stop
         style="stop-color:#0f0c29;stop-opacity:1"
         offset="0"
         id="stop890" />
      <stop
         id="stop892"
         offset="0.37037036"
         style="stop-color:#302b63;stop-opacity:1" />
      <stop
         style="stop-color:#24243e;stop-opacity:1"
         offset="1"
         id="stop894" />
    </linearGradient>
    <inkscape:path-effect
       hide_knots="false"
       only_selected="false"
       apply_with_radius="true"
       apply_no_radius="true"
       use_knot_distance="true"
       flexible="false"
       chamfer_steps="1"
       radius="0"
       mode="F"
       method="auto"
       unit="px"
       satellites_param="F,0,0,1,0,0,0,1 @ F,0,0,1,0,0,0,1 @ F,0,0,1,0,0,0,1 @ F,0,0,1,0,0,0,1 @ F,0,0,1,0,0,0,1 @ F,0,0,1,0,0,0,1 @ F,0,0,1,0,0,0,1 @ F,0,0,1,0,0,0,1 @ F,0,0,1,0,0,0,1 @ F,0,0,1,0,0,0,1 @ F,0,0,1,0,0,0,1 @ F,0,0,1,0,0,0,1 @ F,0,0,1,0,0,0,1 @ F,0,0,1,0,0,0,1 @ F,0,0,1,0,0,0,1 @ F,0,0,1,0,0,0,1"
       lpeversion="1"
       is_visible="true"
       id="path-effect894"
       effect="fillet_chamfer" />
    <inkscape:path-effect
       hide_knots="false"
       only_selected="false"
       apply_with_radius="true"
       apply_no_radius="true"
       use_knot_distance="true"
       flexible="false"
       chamfer_steps="1"
       radius="7"
       mode="F"
       method="auto"
       unit="px"
       satellites_param="F,0,0,1,0,1.8520833,0,1 @ F,0,0,1,0,1.8520833,0,1 @ F,0,0,1,0,1.8520833,0,1 @ F,0,0,1,0,1.8520833,0,1 @ F,0,0,1,0,1.8520833,0,1 @ F,0,0,1,0,1.8520833,0,1 @ F,0,0,1,0,1.8520833,0,1 @ F,0,0,1,0,1.8520833,0,1 @ F,0,0,1,0,1.8520833,0,1"
       lpeversion="1"
       is_visible="true"
       id="path-effect892"
       effect="fillet_chamfer" />
    <inkscape:path-effect
       hide_knots="false"
       only_selected="false"
       apply_with_radius="true"
       apply_no_radius="true"
       use_knot_distance="true"
       flexible="false"
       chamfer_steps="1"
       radius="6"
       mode="F"
       method="auto"
       unit="px"
       satellites_param="F,0,0,1,0,1.5875,0,1 @ F,0,0,1,0,1.5875,0,1 @ F,0,0,1,0,1.5875,0,1 @ F,0,0,1,0,1.5875,0,1 @ F,0,0,1,0,1.5875,0,1 @ F,0,0,1,0,1.5875,0,1 @ F,0,0,1,0,1.5875,0,1 @ F,0,0,1,0,1.5875,0,1 @ F,0,0,1,0,1.5875,0,1"
       lpeversion="1"
       is_visible="true"
       id="path-effect890"
       effect="fillet_chamfer" />
    <linearGradient
       id="linearGradient878-3"
       inkscape:collect="always">
      <stop
         id="stop874"
         offset="0"
         style="stop-color:#355c7d;stop-opacity:1" />
      <stop
         style="stop-color:#6c5b7b;stop-opacity:1"
         offset="0.37037036"
         id="stop882" />
      <stop
         id="stop876"
         offset="1"
         style="stop-color:#c06c84;stop-opacity:1" />
    </linearGradient>
    <inkscape:path-effect
       hide_knots="false"
       only_selected="false"
       apply_with_radius="true"
       apply_no_radius="true"
       use_knot_distance="true"
       flexible="false"
       chamfer_steps="1"
       radius="5"
       mode="F"
       method="auto"
       unit="px"
       satellites_param="F,0,0,1,0,1.3229167,0,1 @ F,0,0,1,0,1.3229167,0,1 @ F,0,0,1,0,1.3229167,0,1 @ F,0,0,1,0,1.3229167,0,1 @ F,0,0,1,0,1.3229167,0,1"
       lpeversion="1"
       is_visible="true"
       id="path-effect852"
       effect="fillet_chamfer" />
    <inkscape:path-effect
       hide_knots="false"
       only_selected="false"
       apply_with_radius="true"
       apply_no_radius="true"
       use_knot_distance="true"
       flexible="false"
       chamfer_steps="1"
       radius="60"
       mode="F"
       method="auto"
       unit="px"
       satellites_param="F,0,0,1,0,15.87501,0,1 @ F,0,0,1,0,15.875,0,1 @ F,0,0,1,0,15.875002,0,1 @ F,0,0,1,0,15.875001,0,1 @ F,0,0,1,0,15.875,0,1 @ F,0,0,1,0,15.87501,0,1 @ F,0,0,1,0,15.875,0,1"
       lpeversion="1"
       is_visible="true"
       id="path-effect846"
       effect="fillet_chamfer" />
    <linearGradient
       gradientUnits="userSpaceOnUse"
       y2="80"
       x2="240"
       y1="350"
       x1="240"
       id="linearGradient880"
       xlink:href="#linearGradient878-3"
       inkscape:collect="always" />
    <filter
       height="1.267208"
       y="-0.13360399"
       width="1.1644382"
       x="-0.082219154"
       id="filter1563"
       style="color-interpolation-filters:sRGB"
       inkscape:collect="always">
      <feGaussianBlur
         id="feGaussianBlur1565"
         stdDeviation="6.8508124"
         inkscape:collect="always" />
    </filter>
    <linearGradient
       gradientTransform="matrix(0.26458333,0,0,0.26458333,48.282325,75.402116)"
       gradientUnits="userSpaceOnUse"
       y2="-104.98438"
       x2="57.515621"
       y1="-159.98438"
       x1="57.515621"
       id="linearGradient1623"
       xlink:href="#linearGradient878-3"
       inkscape:collect="always" />
    <filter
       height="1.3050483"
       y="-0.15252413"
       width="1.2218533"
       x="-0.11092664"
       id="filter1829"
       style="color-interpolation-filters:sRGB"
       inkscape:collect="always">
      <feGaussianBlur
         id="feGaussianBlur1831"
         stdDeviation="0.67258903"
         inkscape:collect="always" />
    </filter>
    <linearGradient
       inkscape:collect="always"
       xlink:href="#linearGradient896-6"
       id="linearGradient877"
       gradientUnits="userSpaceOnUse"
       x1="240"
       y1="350"
       x2="240"
       y2="80"
       gradientTransform="matrix(0.26458333,0,0,0.26458333,0,68.791704)" />
    <linearGradient
       inkscape:collect="always"
       xlink:href="#linearGradient933"
       id="linearGradient914"
       gradientUnits="userSpaceOnUse"
       gradientTransform="matrix(0.26458333,0,0,0.26458333,0,137.58341)"
       x1="240"
       y1="329.99973"
       x2="240"
       y2="69.99971" />
    <linearGradient
       inkscape:collect="always"
       xlink:href="#linearGradient933"
       id="linearGradient936"
       gradientUnits="userSpaceOnUse"
       gradientTransform="matrix(0.26458333,0,0,0.26458333,0,206.37508)"
       x1="240"
       y1="329.99973"
       x2="240"
       y2="69.99971" />
    <filter
       inkscape:collect="always"
       style="color-interpolation-filters:sRGB"
       id="filter1242"
       x="-0.11183599"
       width="1.223672"
       y="-0.13612259"
       height="1.2722452">
      <feGaussianBlur
         inkscape:collect="always"
         stdDeviation="2.4655457"
         id="feGaussianBlur1244" />
    </filter>
    <clipPath
       clipPathUnits="userSpaceOnUse"
       id="clipPath1246">
      <circle
         style="fill:#ff9696;fill-opacity:1;stroke:none;stroke-width:3;paint-order:fill markers stroke"
         id="circle1248"
         cx="63.5"
         cy="269.875"
         r="31.75" />
    </clipPath>
    <clipPath
       clipPathUnits="userSpaceOnUse"
       id="clipPath1250">
      <circle
         style="fill:#ff9696;fill-opacity:1;stroke:none;stroke-width:3;paint-order:fill markers stroke"
         id="circle1252"
         cx="63.5"
         cy="269.875"
         r="31.75" />
    </clipPath>
    <clipPath
       clipPathUnits="userSpaceOnUse"
       id="clipPath1254">
      <circle
         style="fill:#ff9696;fill-opacity:1;stroke:none;stroke-width:3;paint-order:fill markers stroke"
         id="circle1256"
         cx="63.5"
         cy="269.875"
         r="31.75" />
    </clipPath>
  </defs>
  <sodipodi:namedview
     inkscape:window-maximized="1"
     inkscape:window-y="27"
     inkscape:window-x="0"
     inkscape:window-height="1016"
     inkscape:window-width="1920"
     inkscape:showpageshadow="false"
     fit-margin-bottom="0"
     fit-margin-right="0"
     fit-margin-left="0"
     fit-margin-top="0"
     showgrid="true"
     inkscape:document-rotation="0"
     inkscape:current-layer="layer1"
     inkscape:document-units="mm"
     inkscape:cy="334.28564"
     inkscape:cx="-212.55178"
     inkscape:zoom="0.88669804"
     inkscape:pageshadow="2"
     inkscape:pageopacity="0.0"
     borderopacity="1.0"
     bordercolor="#666666"
     pagecolor="#ffffff"
     id="base">
    <inkscape:grid
       originy="-31.745867"
       originx="-31.745861"
       id="grid10"
       type="xygrid" />
  </sodipodi:namedview>
  <metadata
     id="metadata5">
    <rdf:RDF>
      <cc:Work
         rdf:about="">
        <dc:format>image/svg+xml</dc:format>
        <dc:type
           rdf:resource="http://purl.org/dc/dcmitype/StillImage" />
        <dc:title></dc:title>
      </cc:Work>
    </rdf:RDF>
  </metadata>
  <g
     transform="translate(-31.745863,-31.745867)"
     id="layer1"
     inkscape:groupmode="layer"
     inkscape:label="Layer 1">
    <g
       id="g901">
      <path
         id="path58"
         d="m 110.46358,169.32927 c -0.29028,0 -0.57725,0.0155 -0.86145,0.0403 -1.89088,0.0781 -3.89007,0.31757 -5.13147,1.04231 -1.17865,0.68811 -2.16236,1.67181 -2.85047,2.85047 -0.72474,1.2414 -0.96418,3.24059 -1.04231,5.13147 -0.0248,0.2842 -0.0403,0.57117 -0.0403,0.86145 v 43.65625 c 0,5.45319 4.47281,9.92601 9.926,9.92601 h 43.65625 c 5.45319,0 9.92601,-4.47282 9.92601,-9.92601 v -43.65625 c 0,-0.29028 -0.0155,-0.57725 -0.0403,-0.86145 -0.0781,-1.89088 -0.31757,-3.89007 -1.04231,-5.13147 -0.68811,-1.17865 -1.67182,-2.16236 -2.85047,-2.85047 -1.2414,-0.72474 -3.24059,-0.96418 -5.13147,-1.04231 -0.2842,-0.0248 -0.57117,-0.0403 -0.86145,-0.0403 z"
         style="opacity:0.999;fill:#000000;fill-opacity:1;stroke:none;stroke-width:6.365;stroke-opacity:1;paint-order:fill markers stroke" />
      <path
         d="m 145.22425,194.97784 c -0.14593,-10e-4 -0.29103,0.022 -0.42943,0.0682 l -13.36456,4.4545 c -0.80366,0.26801 -1.68087,0.20574 -2.43861,-0.17311 l -8.21655,-4.10828 c -0.62464,-0.31253 -1.38126,8.5e-4 -1.60197,0.66353 l -4.45451,13.36456 c -0.20594,0.61739 0.2535,1.2551 0.90434,1.25522 h 34.39583 c 0.65083,-1.2e-4 1.11028,-0.63783 0.90434,-1.25522 l -4.45451,-13.36456 c -0.17872,-0.53661 -0.6788,-0.90025 -1.24437,-0.90486 z m -12.89327,19.31975 c -1.14767,0.005 -2.27314,0.0296 -3.21892,0.0729 -0.27035,0.0124 -0.70867,0.0375 -0.97875,0.0548 -8.10394,0.51842 -15.5962,2.36772 -21.33049,5.21931 -0.24232,0.12051 -0.43718,0.44044 -0.43718,0.71107 v 2.06603 c 0,0.27063 -0.002,0.71006 0.0243,0.97926 0.21868,2.20707 1.90638,3.89476 4.11344,4.11345 0.26921,0.0267 0.70864,0.0243 0.97927,0.0243 h 42.67647 c 0.27063,0 0.71006,0.002 0.97926,-0.0243 2.20707,-0.21869 3.89528,-1.90638 4.11396,-4.11345 0.0267,-0.26921 0.0238,-0.70863 0.0238,-0.97926 v -2.06603 c 0,-0.27063 -0.19486,-0.59056 -0.43718,-0.71107 -5.73429,-2.85159 -13.22655,-4.70089 -21.33048,-5.21931 -0.27008,-0.0173 -0.70841,-0.0424 -0.97875,-0.0548 -0.94579,-0.0433 -2.07125,-0.0675 -3.21893,-0.0729 -0.27063,-0.001 -0.70916,-0.001 -0.97978,0 z"
         style="opacity:0.999;fill:#ffffff;fill-opacity:1;stroke:none;stroke-width:6.365;stroke-opacity:1;paint-order:fill markers stroke"
         id="path62" />
    </g>
    <g
       id="g865">
      <path
         style="opacity:0.999;fill:url(#linearGradient880);fill-opacity:1;stroke:none;stroke-width:24.0567;stroke-opacity:1;paint-order:fill markers stroke"
         d="m 157.5,119.98438 c -1.09712,0 -2.18174,0.0585 -3.25586,0.15234 -7.14664,0.2953 -14.70262,1.20027 -19.39453,3.93945 -4.45476,2.60074 -8.17271,6.31867 -10.77344,10.77344 -2.73917,4.6919 -3.64414,12.24788 -3.93945,19.39453 -0.0938,1.07412 -0.15234,2.15874 -0.15234,3.25586 v 165 c 0,20.61048 16.90514,37.51563 37.51562,37.51562 h 165 c 20.61048,0 37.51563,-16.90514 37.51562,-37.51562 v -165 c 0,-1.09712 -0.0585,-2.18174 -0.15234,-3.25586 -0.2953,-7.14664 -1.20027,-14.70262 -3.93945,-19.39453 -2.60074,-4.45476 -6.31867,-8.17271 -10.77344,-10.77344 -4.6919,-2.73917 -12.24788,-3.64414 -19.39453,-3.93945 -1.07412,-0.0938 -2.15874,-0.15234 -3.25586,-0.15234 z"
         transform="scale(0.26458333)"
         id="rect839" />
      <g
         id="g1569">
        <path
           transform="matrix(0.26458333,0,0,0.26458333,31.745867,31.745867)"
           id="path897"
           style="opacity:0.835084;fill:#ffffff;fill-opacity:1;stroke:none;stroke-width:24.0567;stroke-opacity:1;paint-order:fill markers stroke;filter:url(#filter1563)"
           d="m 166.89453,96.939453 c -0.55153,-0.0042 -1.09996,0.08295 -1.62305,0.257813 L 114.75977,114.0332 c -3.03745,1.01293 -6.3529,0.77758 -9.2168,-0.65429 L 74.488281,97.851562 c -2.36084,-1.181239 -5.220497,0.0032 -6.054687,2.507818 l -16.835938,50.51171 c -0.77837,2.33345 0.958119,4.7437 3.417969,4.74414 H 185.01562 c 2.45985,-4.4e-4 4.19634,-2.41069 3.41797,-4.74414 l -16.83593,-50.51171 c -0.67546,-2.028135 -2.56555,-3.402527 -4.70313,-3.419927 z m -48.73047,73.019527 c -4.33767,0.0203 -8.59139,0.11167 -12.16601,0.2754 -1.0218,0.0468 -2.67843,0.14173 -3.69922,0.20703 -30.629041,1.95939 -58.946253,8.94889 -80.619142,19.72656 -0.91587,0.45545 -1.652344,1.66463 -1.652344,2.6875 v 7.80859 c 0,1.02287 -0.009,2.6837 0.0918,3.70117 0.82652,8.34167 7.205205,14.72036 15.546875,15.54688 1.01748,0.1008 2.678302,0.0918 3.701172,0.0918 H 200.66406 c 1.02287,0 2.6837,0.009 3.70117,-0.0918 8.34167,-0.82652 14.72231,-7.20521 15.54883,-15.54688 0.1008,-1.01748 0.0898,-2.6783 0.0898,-3.70117 v -7.80859 c 0,-1.02287 -0.73648,-2.23205 -1.65235,-2.6875 -21.67289,-10.77767 -49.9901,-17.76717 -80.61914,-19.72656 -1.02079,-0.0653 -2.67747,-0.16024 -3.69922,-0.20703 -3.57462,-0.16373 -7.82833,-0.2551 -12.16601,-0.2754 -1.02287,-0.005 -2.68031,-0.005 -3.70313,0 z" />
        <path
           transform="matrix(0.26458333,0,0,0.26458333,31.745867,31.745867)"
           d="m 166.89453,96.939453 c -0.55153,-0.0042 -1.09996,0.08295 -1.62305,0.257813 L 114.75977,114.0332 c -3.03745,1.01293 -6.3529,0.77758 -9.2168,-0.65429 L 74.488281,97.851562 c -2.36084,-1.181239 -5.220497,0.0032 -6.054687,2.507818 l -16.835938,50.51171 c -0.77837,2.33345 0.958119,4.7437 3.417969,4.74414 H 185.01562 c 2.45985,-4.4e-4 4.19634,-2.41069 3.41797,-4.74414 l -16.83593,-50.51171 c -0.67546,-2.028135 -2.56555,-3.402527 -4.70313,-3.419927 z m -48.73047,73.019527 c -4.33767,0.0203 -8.59139,0.11167 -12.16601,0.2754 -1.0218,0.0468 -2.67843,0.14173 -3.69922,0.20703 -30.629041,1.95939 -58.946253,8.94889 -80.619142,19.72656 -0.91587,0.45545 -1.652344,1.66463 -1.652344,2.6875 v 7.80859 c 0,1.02287 -0.009,2.6837 0.0918,3.70117 0.82652,8.34167 7.205205,14.72036 15.546875,15.54688 1.01748,0.1008 2.678302,0.0918 3.701172,0.0918 H 200.66406 c 1.02287,0 2.6837,0.009 3.70117,-0.0918 8.34167,-0.82652 14.72231,-7.20521 15.54883,-15.54688 0.1008,-1.01748 0.0898,-2.6783 0.0898,-3.70117 v -7.80859 c 0,-1.02287 -0.73648,-2.23205 -1.65235,-2.6875 -21.67289,-10.77767 -49.9901,-17.76717 -80.61914,-19.72656 -1.02079,-0.0653 -2.67747,-0.16024 -3.69922,-0.20703 -3.57462,-0.16373 -7.82833,-0.2551 -12.16601,-0.2754 -1.02287,-0.005 -2.68031,-0.005 -3.70313,0 z"
           style="opacity:0.999;fill:#ffffff;fill-opacity:1;stroke:none;stroke-width:24.0567;stroke-opacity:1;paint-order:fill markers stroke"
           id="path888" />
      </g>
    </g>
    <g
       transform="translate(58.148904,13.229167)"
       id="g1835">
      <path
         d="m 63.5,37.041667 c -1.099344,0 -1.984375,0.885034 -1.984375,1.984375 v 6.614583 c 0,1.099346 0.885031,1.984375 1.984375,1.984375 1.099344,0 1.984375,-0.885029 1.984375,-1.984375 v -6.614583 c 0,-1.099341 -0.885031,-1.984375 -1.984375,-1.984375 z M 58.267761,39.6875 c -1.132387,0 -2.043803,0.911418 -2.043803,2.043803 v 2.52698 c 0,1.132385 0.911416,2.0438 2.043803,2.0438 1.132386,0 2.04432,-0.911415 2.04432,-2.0438 v -2.52698 c 0,-1.132385 -0.911934,-2.043803 -2.04432,-2.043803 z m 10.523905,0 c -1.099344,0 -1.984374,0.885031 -1.984374,1.984375 v 2.645833 c 0,1.099347 0.88503,1.984375 1.984374,1.984375 1.099344,0 1.984375,-0.885028 1.984375,-1.984375 v -2.645833 c 0,-1.099344 -0.885031,-1.984375 -1.984375,-1.984375 z"
         style="opacity:0.262744;fill:#000000;fill-opacity:1;stroke:none;stroke-width:5.3;stroke-miterlimit:4;stroke-dasharray:none;stroke-opacity:1;paint-order:fill markers stroke;filter:url(#filter1829)"
         id="path1625" />
      <path
         id="rect1607"
         style="opacity:0.835084;fill:url(#linearGradient1623);fill-opacity:1;stroke:none;stroke-width:5.3;stroke-miterlimit:4;stroke-dasharray:none;stroke-opacity:1;paint-order:fill markers stroke"
         d="m 63.500001,37.041666 c -1.099344,0 -1.984375,0.885034 -1.984375,1.984375 v 6.614583 c 0,1.099346 0.885031,1.984375 1.984375,1.984375 1.099344,0 1.984375,-0.885029 1.984375,-1.984375 v -6.614583 c 0,-1.099341 -0.885031,-1.984375 -1.984375,-1.984375 z m -5.232239,2.645833 c -1.132387,0 -2.043803,0.911418 -2.043803,2.043803 v 2.52698 c 0,1.132385 0.911416,2.0438 2.043803,2.0438 1.132386,0 2.04432,-0.911415 2.04432,-2.0438 v -2.52698 c 0,-1.132385 -0.911934,-2.043803 -2.04432,-2.043803 z m 10.523905,0 c -1.099344,0 -1.984374,0.885031 -1.984374,1.984375 v 2.645833 c 0,1.099347 0.88503,1.984375 1.984374,1.984375 1.099344,0 1.984375,-0.885028 1.984375,-1.984375 v -2.645833 c 0,-1.099344 -0.885031,-1.984375 -1.984375,-1.984375 z" />
    </g>
    <g
       id="g902">
      <path
         id="path867"
         d="m 41.671874,100.53757 c -0.290279,0 -0.577252,0.0155 -0.861446,0.0403 -1.890882,0.0781 -3.890068,0.31757 -5.131469,1.04231 -1.178655,0.68811 -2.162363,1.67181 -2.850473,2.85047 -0.724738,1.2414 -0.964178,3.24059 -1.042313,5.13147 -0.02482,0.2842 -0.04031,0.57117 -0.04031,0.86145 v 43.65625 c 0,5.45319 4.472818,9.92601 9.926007,9.92601 h 43.65625 c 5.453189,0 9.92601,-4.47282 9.926008,-9.92601 v -43.65625 c 0,-0.29028 -0.01548,-0.57725 -0.04031,-0.86145 -0.07813,-1.89088 -0.317571,-3.89007 -1.042313,-5.13147 -0.688112,-1.17865 -1.671815,-2.16236 -2.850472,-2.85047 -1.241399,-0.72474 -3.240585,-0.96418 -5.13147,-1.04231 -0.284194,-0.0248 -0.571166,-0.0403 -0.861446,-0.0403 z"
         style="opacity:0.999;fill:url(#linearGradient877);fill-opacity:1;stroke:none;stroke-width:6.365;stroke-opacity:1;paint-order:fill markers stroke" />
      <g
         transform="translate(0,68.791704)"
         id="g873">
        <path
           d="m 166.89453,96.939453 c -0.55153,-0.0042 -1.09996,0.08295 -1.62305,0.257813 L 114.75977,114.0332 c -3.03745,1.01293 -6.3529,0.77758 -9.2168,-0.65429 L 74.488281,97.851562 c -2.36084,-1.181239 -5.220497,0.0032 -6.054687,2.507818 l -16.835938,50.51171 c -0.77837,2.33345 0.958119,4.7437 3.417969,4.74414 H 185.01562 c 2.45985,-4.4e-4 4.19634,-2.41069 3.41797,-4.74414 l -16.83593,-50.51171 c -0.67546,-2.028135 -2.56555,-3.402527 -4.70313,-3.419927 z m -48.73047,73.019527 c -4.33767,0.0203 -8.59139,0.11167 -12.16601,0.2754 -1.0218,0.0468 -2.67843,0.14173 -3.69922,0.20703 -30.629041,1.95939 -58.946253,8.94889 -80.619142,19.72656 -0.91587,0.45545 -1.652344,1.66463 -1.652344,2.6875 v 7.80859 c 0,1.02287 -0.009,2.6837 0.0918,3.70117 0.82652,8.34167 7.205205,14.72036 15.546875,15.54688 1.01748,0.1008 2.678302,0.0918 3.701172,0.0918 H 200.66406 c 1.02287,0 2.6837,0.009 3.70117,-0.0918 8.34167,-0.82652 14.72231,-7.20521 15.54883,-15.54688 0.1008,-1.01748 0.0898,-2.6783 0.0898,-3.70117 v -7.80859 c 0,-1.02287 -0.73648,-2.23205 -1.65235,-2.6875 -21.67289,-10.77767 -49.9901,-17.76717 -80.61914,-19.72656 -1.02079,-0.0653 -2.67747,-0.16024 -3.69922,-0.20703 -3.57462,-0.16373 -7.82833,-0.2551 -12.16601,-0.2754 -1.02287,-0.005 -2.68031,-0.005 -3.70313,0 z"
           style="opacity:0.835084;fill:#ffffff;fill-opacity:1;stroke:none;stroke-width:24.0567;stroke-opacity:1;paint-order:fill markers stroke;filter:url(#filter1563)"
           id="path869"
           transform="matrix(0.26458333,0,0,0.26458333,31.745867,31.745867)" />
        <path
           id="path871"
           style="opacity:0.999;fill:#ffffff;fill-opacity:1;stroke:none;stroke-width:24.0567;stroke-opacity:1;paint-order:fill markers stroke"
           d="m 166.89453,96.939453 c -0.55153,-0.0042 -1.09996,0.08295 -1.62305,0.257813 L 114.75977,114.0332 c -3.03745,1.01293 -6.3529,0.77758 -9.2168,-0.65429 L 74.488281,97.851562 c -2.36084,-1.181239 -5.220497,0.0032 -6.054687,2.507818 l -16.835938,50.51171 c -0.77837,2.33345 0.958119,4.7437 3.417969,4.74414 H 185.01562 c 2.45985,-4.4e-4 4.19634,-2.41069 3.41797,-4.74414 l -16.83593,-50.51171 c -0.67546,-2.028135 -2.56555,-3.402527 -4.70313,-3.419927 z m -48.73047,73.019527 c -4.33767,0.0203 -8.59139,0.11167 -12.16601,0.2754 -1.0218,0.0468 -2.67843,0.14173 -3.69922,0.20703 -30.629041,1.95939 -58.946253,8.94889 -80.619142,19.72656 -0.91587,0.45545 -1.652344,1.66463 -1.652344,2.6875 v 7.80859 c 0,1.02287 -0.009,2.6837 0.0918,3.70117 0.82652,8.34167 7.205205,14.72036 15.546875,15.54688 1.01748,0.1008 2.678302,0.0918 3.701172,0.0918 H 200.66406 c 1.02287,0 2.6837,0.009 3.70117,-0.0918 8.34167,-0.82652 14.72231,-7.20521 15.54883,-15.54688 0.1008,-1.01748 0.0898,-2.6783 0.0898,-3.70117 v -7.80859 c 0,-1.02287 -0.73648,-2.23205 -1.65235,-2.6875 -21.67289,-10.77767 -49.9901,-17.76717 -80.61914,-19.72656 -1.02079,-0.0653 -2.67747,-0.16024 -3.69922,-0.20703 -3.57462,-0.16373 -7.82833,-0.2551 -12.16601,-0.2754 -1.02287,-0.005 -2.68031,-0.005 -3.70313,0 z"
           transform="matrix(0.26458333,0,0,0.26458333,31.745867,31.745867)" />
      </g>
    </g>
    <g
       id="g939">
      <path
         style="opacity:0.999;fill:url(#linearGradient914);fill-opacity:1;stroke:none;stroke-width:6.365;stroke-opacity:1;paint-order:fill markers stroke"
         d="m 41.671874,169.32927 c -0.290279,0 -0.577252,0.0155 -0.861446,0.0403 -1.890882,0.0781 -3.890068,0.31757 -5.131469,1.04231 -1.178655,0.68811 -2.162363,1.67181 -2.850473,2.85047 -0.724738,1.2414 -0.964178,3.24059 -1.042313,5.13147 -0.02482,0.2842 -0.04031,0.57117 -0.04031,0.86145 v 43.65625 c 0,5.45319 4.472818,9.92601 9.926007,9.92601 h 43.65625 c 5.453189,0 9.92601,-4.47282 9.926008,-9.92601 v -43.65625 c 0,-0.29028 -0.01548,-0.57725 -0.04031,-0.86145 -0.07813,-1.89088 -0.317571,-3.89007 -1.042313,-5.13147 -0.688112,-1.17865 -1.671815,-2.16236 -2.850472,-2.85047 -1.241399,-0.72474 -3.240585,-0.96418 -5.13147,-1.04231 -0.284194,-0.0248 -0.571166,-0.0403 -0.861446,-0.0403 z"
         id="path904" />
      <g
         id="g910"
         transform="translate(0,137.58341)">
        <path
           transform="matrix(0.26458333,0,0,0.26458333,31.745867,31.745867)"
           id="path906"
           style="opacity:0.835084;fill:#ffffff;fill-opacity:1;stroke:none;stroke-width:24.0567;stroke-opacity:1;paint-order:fill markers stroke;filter:url(#filter1563)"
           d="m 166.89453,96.939453 c -0.55153,-0.0042 -1.09996,0.08295 -1.62305,0.257813 L 114.75977,114.0332 c -3.03745,1.01293 -6.3529,0.77758 -9.2168,-0.65429 L 74.488281,97.851562 c -2.36084,-1.181239 -5.220497,0.0032 -6.054687,2.507818 l -16.835938,50.51171 c -0.77837,2.33345 0.958119,4.7437 3.417969,4.74414 H 185.01562 c 2.45985,-4.4e-4 4.19634,-2.41069 3.41797,-4.74414 l -16.83593,-50.51171 c -0.67546,-2.028135 -2.56555,-3.402527 -4.70313,-3.419927 z m -48.73047,73.019527 c -4.33767,0.0203 -8.59139,0.11167 -12.16601,0.2754 -1.0218,0.0468 -2.67843,0.14173 -3.69922,0.20703 -30.629041,1.95939 -58.946253,8.94889 -80.619142,19.72656 -0.91587,0.45545 -1.652344,1.66463 -1.652344,2.6875 v 7.80859 c 0,1.02287 -0.009,2.6837 0.0918,3.70117 0.82652,8.34167 7.205205,14.72036 15.546875,15.54688 1.01748,0.1008 2.678302,0.0918 3.701172,0.0918 H 200.66406 c 1.02287,0 2.6837,0.009 3.70117,-0.0918 8.34167,-0.82652 14.72231,-7.20521 15.54883,-15.54688 0.1008,-1.01748 0.0898,-2.6783 0.0898,-3.70117 v -7.80859 c 0,-1.02287 -0.73648,-2.23205 -1.65235,-2.6875 -21.67289,-10.77767 -49.9901,-17.76717 -80.61914,-19.72656 -1.02079,-0.0653 -2.67747,-0.16024 -3.69922,-0.20703 -3.57462,-0.16373 -7.82833,-0.2551 -12.16601,-0.2754 -1.02287,-0.005 -2.68031,-0.005 -3.70313,0 z" />
        <path
           transform="matrix(0.26458333,0,0,0.26458333,31.745867,31.745867)"
           d="m 166.89453,96.939453 c -0.55153,-0.0042 -1.09996,0.08295 -1.62305,0.257813 L 114.75977,114.0332 c -3.03745,1.01293 -6.3529,0.77758 -9.2168,-0.65429 L 74.488281,97.851562 c -2.36084,-1.181239 -5.220497,0.0032 -6.054687,2.507818 l -16.835938,50.51171 c -0.77837,2.33345 0.958119,4.7437 3.417969,4.74414 H 185.01562 c 2.45985,-4.4e-4 4.19634,-2.41069 3.41797,-4.74414 l -16.83593,-50.51171 c -0.67546,-2.028135 -2.56555,-3.402527 -4.70313,-3.419927 z m -48.73047,73.019527 c -4.33767,0.0203 -8.59139,0.11167 -12.16601,0.2754 -1.0218,0.0468 -2.67843,0.14173 -3.69922,0.20703 -30.629041,1.95939 -58.946253,8.94889 -80.619142,19.72656 -0.91587,0.45545 -1.652344,1.66463 -1.652344,2.6875 v 7.80859 c 0,1.02287 -0.009,2.6837 0.0918,3.70117 0.82652,8.34167 7.205205,14.72036 15.546875,15.54688 1.01748,0.1008 2.678302,0.0918 3.701172,0.0918 H 200.66406 c 1.02287,0 2.6837,0.009 3.70117,-0.0918 8.34167,-0.82652 14.72231,-7.20521 15.54883,-15.54688 0.1008,-1.01748 0.0898,-2.6783 0.0898,-3.70117 v -7.80859 c 0,-1.02287 -0.73648,-2.23205 -1.65235,-2.6875 -21.67289,-10.77767 -49.9901,-17.76717 -80.61914,-19.72656 -1.02079,-0.0653 -2.67747,-0.16024 -3.69922,-0.20703 -3.57462,-0.16373 -7.82833,-0.2551 -12.16601,-0.2754 -1.02287,-0.005 -2.68031,-0.005 -3.70313,0 z"
           style="opacity:0.999;fill:#ffffff;fill-opacity:1;stroke:none;stroke-width:24.0567;stroke-opacity:1;paint-order:fill markers stroke"
           id="path908" />
      </g>
    </g>
    <path
       d="m 145.22425,126.18614 c -0.14593,-10e-4 -0.29103,0.022 -0.42943,0.0682 l -13.36456,4.4545 c -0.80366,0.26801 -1.68087,0.20574 -2.43861,-0.17311 l -8.21655,-4.10828 c -0.62464,-0.31253 -1.38126,8.5e-4 -1.60197,0.66353 l -4.45451,13.36456 c -0.20594,0.61739 0.2535,1.2551 0.90434,1.25522 h 34.39583 c 0.65083,-1.2e-4 1.11028,-0.63783 0.90434,-1.25522 l -4.45451,-13.36456 c -0.17872,-0.53661 -0.6788,-0.90025 -1.24437,-0.90486 z m -12.89327,19.31975 c -1.14767,0.005 -2.27314,0.0296 -3.21892,0.0729 -0.27035,0.0124 -0.70867,0.0375 -0.97875,0.0548 -8.10394,0.51842 -15.5962,2.36772 -21.33049,5.21931 -0.24232,0.12051 -0.43718,0.44044 -0.43718,0.71107 V 153.63 c 0,0.27063 -0.002,0.71006 0.0243,0.97926 0.21868,2.20707 1.90638,3.89476 4.11344,4.11345 0.26921,0.0267 0.70864,0.0243 0.97927,0.0243 h 42.67647 c 0.27063,0 0.71006,0.002 0.97926,-0.0243 2.20707,-0.21869 3.89528,-1.90638 4.11396,-4.11345 0.0267,-0.26921 0.0238,-0.70863 0.0238,-0.97926 v -2.06603 c 0,-0.27063 -0.19486,-0.59056 -0.43718,-0.71107 -5.73429,-2.85159 -13.22655,-4.70089 -21.33048,-5.21931 -0.27008,-0.0173 -0.70841,-0.0424 -0.97875,-0.0548 -0.94579,-0.0433 -2.07125,-0.0675 -3.21893,-0.0729 -0.27063,-0.001 -0.70916,-0.001 -0.97978,0 z"
       style="opacity:0.999;fill:#000000;fill-opacity:1;stroke:none;stroke-width:6.365;stroke-opacity:1;paint-order:fill markers stroke"
       id="path905" />
    <g
       id="g1261"
       inkscape:export-xdpi="204.8"
       inkscape:export-ydpi="204.8">
      <path
         style="opacity:0.999;fill:url(#linearGradient936);fill-opacity:1;stroke:none;stroke-width:6.365;stroke-opacity:1;paint-order:fill markers stroke"
         d="m 41.671874,238.12094 c -0.290279,0 -0.577252,0.0155 -0.861446,0.0403 -1.890882,0.0781 -3.890068,0.31757 -5.131469,1.04231 -1.178655,0.68811 -2.162363,1.67181 -2.850473,2.85047 -0.724738,1.2414 -0.964178,3.24059 -1.042313,5.13147 -0.02482,0.2842 -0.04031,0.57117 -0.04031,0.86145 v 43.65625 c 0,5.45319 4.472818,9.92601 9.926007,9.92601 h 43.65625 c 5.453189,0 9.92601,-4.47282 9.926008,-9.92601 v -43.65625 c 0,-0.29028 -0.01548,-0.57725 -0.04031,-0.86145 -0.07813,-1.89088 -0.317571,-3.89007 -1.042313,-5.13147 -0.688112,-1.17865 -1.671815,-2.16236 -2.850472,-2.85047 -1.241399,-0.72474 -3.240585,-0.96418 -5.13147,-1.04231 -0.284194,-0.0248 -0.571166,-0.0403 -0.861446,-0.0403 z"
         id="path926"
         clip-path="url(#clipPath1254)" />
      <path
         d="m 75.903378,263.76951 c -0.145926,-0.001 -0.291032,0.0219 -0.429432,0.0682 l -13.364557,4.4545 c -0.803659,0.26801 -1.680871,0.20574 -2.438612,-0.17311 l -8.216553,-4.10828 c -0.624638,-0.31253 -1.381256,8.5e-4 -1.601969,0.66353 l -4.454508,13.36456 c -0.205944,0.61739 0.253502,1.2551 0.904337,1.25522 h 34.395832 c 0.650835,-1.2e-4 1.110281,-0.63783 0.904338,-1.25522 l -4.454507,-13.36456 c -0.178715,-0.53661 -0.678801,-0.90025 -1.244369,-0.90486 z m -12.893271,19.31975 c -1.147675,0.005 -2.273138,0.0295 -3.218923,0.0729 -0.270351,0.0124 -0.708668,0.0375 -0.978752,0.0548 -8.103934,0.51842 -15.596196,2.36772 -21.330481,5.21931 -0.242324,0.12051 -0.437183,0.44044 -0.437183,0.71107 l 0,12.97552 c 0,0.27063 -0.0024,0.71006 0.02429,0.97926 0.218684,2.20707 1.906377,3.89476 4.113444,4.11345 0.269208,0.0267 0.708634,0.0243 0.979268,0.0243 h 42.676463 c 0.270635,0 0.710062,0.002 0.979268,-0.0243 2.207067,-0.21869 3.895278,-1.90638 4.113961,-4.11345 0.02667,-0.26921 0.02376,-0.70863 0.02376,-0.97926 l 0,-12.97552 c 0,-0.27063 -0.19486,-0.59056 -0.437184,-0.71107 -5.734286,-2.85159 -13.226547,-4.70089 -21.330481,-5.21931 -0.270084,-0.0173 -0.708414,-0.0424 -0.978752,-0.0548 -0.945785,-0.0433 -2.071245,-0.0675 -3.218923,-0.0729 -0.270635,-0.001 -0.709166,-0.001 -0.979787,0 z"
         style="opacity:0.999;fill:#ffffff;fill-opacity:1;stroke:none;stroke-width:6.365;stroke-opacity:1;paint-order:fill markers stroke"
         id="path930"
         sodipodi:nodetypes="cccccccccccccsscssscssscssscsccss"
         clip-path="url(#clipPath1250)" />
      <path
         d="m 75.903378,263.76951 c -0.145926,-0.001 -0.291032,0.0219 -0.429432,0.0682 l -13.364557,4.4545 c -0.803659,0.26801 -1.680871,0.20574 -2.438612,-0.17311 l -8.216553,-4.10828 c -0.624638,-0.31253 -1.381256,8.5e-4 -1.601969,0.66353 l -4.454508,13.36456 c -0.205944,0.61739 0.253502,1.2551 0.904337,1.25522 h 34.395832 c 0.650835,-1.2e-4 1.110281,-0.63783 0.904338,-1.25522 l -4.454507,-13.36456 c -0.178715,-0.53661 -0.678801,-0.90025 -1.244369,-0.90486 z m -12.893271,19.31975 c -1.147675,0.005 -2.273138,0.0295 -3.218923,0.0729 -0.270351,0.0124 -0.708668,0.0375 -0.978752,0.0548 -8.103934,0.51842 -15.596196,2.36772 -21.330481,5.21931 -0.242324,0.12051 -0.437183,0.44044 -0.437183,0.71107 l 0,12.97552 c 0,0.27063 -0.0024,0.71006 0.02429,0.97926 0.218684,2.20707 1.906377,3.89476 4.113444,4.11345 0.269208,0.0267 0.708634,0.0243 0.979268,0.0243 h 42.676463 c 0.270635,0 0.710062,0.002 0.979268,-0.0243 2.207067,-0.21869 3.895278,-1.90638 4.113961,-4.11345 0.02667,-0.26921 0.02376,-0.70863 0.02376,-0.97926 l 0,-12.97552 c 0,-0.27063 -0.19486,-0.59056 -0.437184,-0.71107 -5.734286,-2.85159 -13.226547,-4.70089 -21.330481,-5.21931 -0.270084,-0.0173 -0.708414,-0.0424 -0.978752,-0.0548 -0.945785,-0.0433 -2.071245,-0.0675 -3.218923,-0.0729 -0.270635,-0.001 -0.709166,-0.001 -0.979787,0 z"
         style="opacity:0.59394819;fill:#ffffff;fill-opacity:1;stroke:none;stroke-width:6.365;stroke-opacity:1;paint-order:fill markers stroke;filter:url(#filter1242)"
         id="path948"
         sodipodi:nodetypes="cccccccccccccsscssscssscssscsccss"
         clip-path="url(#clipPath1246)" />
    </g>
  </g>
</svg>
