<?xml version="1.0" encoding="UTF-8" standalone="no"?>
<svg
   xmlns:dc="http://purl.org/dc/elements/1.1/"
   xmlns:cc="http://creativecommons.org/ns#"
   xmlns:rdf="http://www.w3.org/1999/02/22-rdf-syntax-ns#"
   xmlns:svg="http://www.w3.org/2000/svg"
   xmlns="http://www.w3.org/2000/svg"
   xmlns:xlink="http://www.w3.org/1999/xlink"
   xmlns:sodipodi="http://sodipodi.sourceforge.net/DTD/sodipodi-0.dtd"
   xmlns:inkscape="http://www.inkscape.org/namespaces/inkscape"
   width="63.499954mm"
   height="63.499931mm"
   viewBox="0 0 63.499954 63.499932"
   version="1.1"
   id="svg8"
   inkscape:version="1.0 (4035a4f, 2020-05-01)"
   sodipodi:docname="logo3.svg"
   inkscape:export-filename="/home/aryan/Documents/bpgc_confessions/public/images/96.png"
   inkscape:export-xdpi="38.395004"
   inkscape:export-ydpi="38.395004">
  <defs
     id="defs2">
    <linearGradient
       inkscape:collect="always"
       id="linearGradient933">
      <stop
         style="stop-color:#360033;stop-opacity:1"
         offset="0"
         id="stop927" />
      <stop
         style="stop-color:#0b8793;stop-opacity:1"
         offset="1"
         id="stop931" />
    </linearGradient>
    <inkscape:path-effect
       effect="fillet_chamfer"
       id="path-effect894"
       is_visible="true"
       lpeversion="1"
       satellites_param="F,0,0,1,0,0,0,1 @ F,0,0,1,0,0,0,1 @ F,0,0,1,0,0,0,1 @ F,0,0,1,0,0,0,1 @ F,0,0,1,0,0,0,1 @ F,0,0,1,0,0,0,1 @ F,0,0,1,0,0,0,1 @ F,0,0,1,0,0,0,1 @ F,0,0,1,0,0,0,1 @ F,0,0,1,0,0,0,1 @ F,0,0,1,0,0,0,1 @ F,0,0,1,0,0,0,1 @ F,0,0,1,0,0,0,1 @ F,0,0,1,0,0,0,1 @ F,0,0,1,0,0,0,1 @ F,0,0,1,0,0,0,1"
       unit="px"
       method="auto"
       mode="F"
       radius="0"
       chamfer_steps="1"
       flexible="false"
       use_knot_distance="true"
       apply_no_radius="true"
       apply_with_radius="true"
       only_selected="false"
       hide_knots="false" />
    <inkscape:path-effect
       effect="fillet_chamfer"
       id="path-effect892"
       is_visible="true"
       lpeversion="1"
       satellites_param="F,0,0,1,0,1.8520833,0,1 @ F,0,0,1,0,1.8520833,0,1 @ F,0,0,1,0,1.8520833,0,1 @ F,0,0,1,0,1.8520833,0,1 @ F,0,0,1,0,1.8520833,0,1 @ F,0,0,1,0,1.8520833,0,1 @ F,0,0,1,0,1.8520833,0,1 @ F,0,0,1,0,1.8520833,0,1 @ F,0,0,1,0,1.8520833,0,1"
       unit="px"
       method="auto"
       mode="F"
       radius="7"
       chamfer_steps="1"
       flexible="false"
       use_knot_distance="true"
       apply_no_radius="true"
       apply_with_radius="true"
       only_selected="false"
       hide_knots="false" />
    <inkscape:path-effect
       effect="fillet_chamfer"
       id="path-effect890"
       is_visible="true"
       lpeversion="1"
       satellites_param="F,0,0,1,0,1.5875,0,1 @ F,0,0,1,0,1.5875,0,1 @ F,0,0,1,0,1.5875,0,1 @ F,0,0,1,0,1.5875,0,1 @ F,0,0,1,0,1.5875,0,1 @ F,0,0,1,0,1.5875,0,1 @ F,0,0,1,0,1.5875,0,1 @ F,0,0,1,0,1.5875,0,1 @ F,0,0,1,0,1.5875,0,1"
       unit="px"
       method="auto"
       mode="F"
       radius="6"
       chamfer_steps="1"
       flexible="false"
       use_knot_distance="true"
       apply_no_radius="true"
       apply_with_radius="true"
       only_selected="false"
       hide_knots="false" />
    <inkscape:path-effect
       effect="fillet_chamfer"
       id="path-effect852"
       is_visible="true"
       lpeversion="1"
       satellites_param="F,0,0,1,0,1.3229167,0,1 @ F,0,0,1,0,1.3229167,0,1 @ F,0,0,1,0,1.3229167,0,1 @ F,0,0,1,0,1.3229167,0,1 @ F,0,0,1,0,1.3229167,0,1"
       unit="px"
       method="auto"
       mode="F"
       radius="5"
       chamfer_steps="1"
       flexible="false"
       use_knot_distance="true"
       apply_no_radius="true"
       apply_with_radius="true"
       only_selected="false"
       hide_knots="false" />
    <inkscape:path-effect
       effect="fillet_chamfer"
       id="path-effect846"
       is_visible="true"
       lpeversion="1"
       satellites_param="F,0,0,1,0,15.87501,0,1 @ F,0,0,1,0,15.875,0,1 @ F,0,0,1,0,15.875002,0,1 @ F,0,0,1,0,15.875001,0,1 @ F,0,0,1,0,15.875,0,1 @ F,0,0,1,0,15.87501,0,1 @ F,0,0,1,0,15.875,0,1"
       unit="px"
       method="auto"
       mode="F"
       radius="60"
       chamfer_steps="1"
       flexible="false"
       use_knot_distance="true"
       apply_no_radius="true"
       apply_with_radius="true"
       only_selected="false"
       hide_knots="false" />
    <linearGradient
       gradientTransform="translate(2.4124485e-6)"
       y2="224.89583"
       x2="92.604164"
       y1="298.97916"
       x1="50.270832"
       gradientUnits="userSpaceOnUse"
       id="linearGradient908"
       xlink:href="#linearGradient933"
       inkscape:collect="always" />
    <filter
       height="1.2402537"
       y="-0.12012686"
       width="1.1761001"
       x="-0.088050067"
       id="filter1261"
       style="color-interpolation-filters:sRGB"
       inkscape:collect="always">
      <feGaussianBlur
         id="feGaussianBlur1263"
         stdDeviation="1.894781"
         inkscape:collect="always" />
    </filter>
    <clipPath
       id="clipPath1322"
       clipPathUnits="userSpaceOnUse">
      <circle
         r="31.75"
         cy="269.875"
         cx="63.5"
         id="circle1324"
         style="opacity:1;fill:#0dff46;fill-opacity:1;stroke-width:5.3;paint-order:fill markers stroke" />
    </clipPath>
  </defs>
  <sodipodi:namedview
     id="base"
     pagecolor="#ffffff"
     bordercolor="#666666"
     borderopacity="1.0"
     inkscape:pageopacity="0.0"
     inkscape:pageshadow="2"
     inkscape:zoom="0.3134951"
     inkscape:cx="488.9668"
     inkscape:cy="-623.25992"
     inkscape:document-units="mm"
     inkscape:current-layer="layer1"
     inkscape:document-rotation="0"
     showgrid="true"
     fit-margin-top="0"
     fit-margin-left="0"
     fit-margin-right="0"
     fit-margin-bottom="0"
     inkscape:showpageshadow="false"
     inkscape:window-width="1920"
     inkscape:window-height="1016"
     inkscape:window-x="0"
     inkscape:window-y="27"
     inkscape:window-maximized="1">
    <inkscape:grid
       type="xygrid"
       id="grid10"
       originx="-31.750046"
       originy="-238.12507" />
  </sodipodi:namedview>
  <metadata
     id="metadata5">
    <rdf:RDF>
      <cc:Work
         rdf:about="">
        <dc:format>image/svg+xml</dc:format>
        <dc:type
           rdf:resource="http://purl.org/dc/dcmitype/StillImage" />
        <dc:title></dc:title>
      </cc:Work>
    </rdf:RDF>
  </metadata>
  <g
     inkscape:label="Layer 1"
     inkscape:groupmode="layer"
     id="layer1"
     transform="translate(-31.750047,-238.12507)">
    <g
       clip-path="url(#clipPath1322)"
       id="g1318">
      <g
         id="g1137">
        <path
           transform="matrix(0.26458333,0,0,0.26458333,100.53758,169.32927)"
           d="m -93.105469,356.93945 c -0.551531,-0.004 -1.09996,0.0832 -1.623047,0.25782 l -50.511714,16.83593 c -1.51873,0.50648 -3.1073,0.70105 -4.67383,0.58985 -1.56653,-0.11121 -3.11102,-0.52821 -4.54297,-1.24414 l -31.05469,-15.52735 c -0.59021,-0.2953 -1.2111,-0.44305 -1.82422,-0.45898 -0.61312,-0.0159 -1.21824,0.0993 -1.77539,0.33008 -0.55714,0.23076 -1.06794,0.57669 -1.49023,1.02148 -0.42229,0.4448 -0.7563,0.98908 -0.96485,1.61524 l -16.83593,50.51171 c -0.1946,0.58336 -0.2324,1.17246 -0.14063,1.72657 0.0918,0.5541 0.31261,1.07238 0.63477,1.51953 0.32215,0.44715 0.74563,0.8215 1.24218,1.08398 0.49655,0.26249 1.06668,0.41395 1.68164,0.41406 h 130.000005 c 0.614962,-1.1e-4 1.185091,-0.15157 1.681641,-0.41406 0.49655,-0.26248 0.920033,-0.63683 1.242187,-1.08398 0.322154,-0.44715 0.542993,-0.96543 0.634766,-1.51953 0.09177,-0.55411 0.05397,-1.14321 -0.140625,-1.72657 l -16.835938,-50.51171 c -0.337729,-1.01407 -0.978582,-1.8636 -1.802734,-2.4629 -0.824152,-0.59929 -1.831601,-0.94832 -2.900391,-0.95703 z"
           style="opacity:1;fill:#ffffff;fill-opacity:1;stroke-width:20.0315;paint-order:fill markers stroke"
           id="path898" />
        <path
           transform="matrix(0.26458333,0,0,0.26458333,100.53758,169.32927)"
           d="m -42.384766,449.83008 c -2.488896,-1.22004 -5.039191,-2.4042 -7.693359,-3.52344 -2.908284,-1.2264 -5.913373,-2.39144 -9.003906,-3.49219 -3.090534,-1.10074 -6.267579,-2.13718 -9.523438,-3.10742 -3.255859,-0.97023 -6.58988,-1.87411 -9.99414,-2.70898 -6.808522,-1.66975 -13.89668,-3.06291 -21.197266,-4.16211 -7.300585,-1.09921 -14.813445,-1.90469 -22.470705,-2.39453 -1.02079,-0.0654 -2.67747,-0.16017 -3.69922,-0.20703 -3.57462,-0.16366 -7.82833,-0.25499 -12.16601,-0.2754 -1.02287,-0.004 -2.68031,-0.004 -3.70313,0 -4.33767,0.0189 -8.59139,0.11136 -12.16601,0.2754 -1.0218,0.0469 -2.67843,0.14164 -3.69922,0.20703 -7.65726,0.48984 -15.17012,1.29532 -22.47071,2.39453 -7.30058,1.0992 -14.38874,2.49236 -21.19726,4.16211 -3.40426,0.83487 -6.73828,1.73875 -9.99414,2.70898 -3.25586,0.97024 -6.43486,2.00668 -9.52539,3.10742 -3.09054,1.10075 -6.09367,2.26579 -9.00195,3.49219 -2.65417,1.11924 -5.20447,2.3034 -7.69336,3.52344 a 120,120 0 0 0 97.5996,50.18554 120,120 0 0 0 97.599614,-50.18554 z"
           style="opacity:1;fill:#ffffff;fill-opacity:1;stroke-width:20.0315;paint-order:fill markers stroke"
           id="path1121" />
      </g>
      <path
         id="path1119"
         style="fill:url(#linearGradient908);fill-opacity:1;stroke-width:5.3;paint-order:fill markers stroke"
         d="m 63.500047,238.12507 a 31.75,31.75 0 0 0 -31.75,31.75 31.75,31.75 0 0 0 5.926772,18.47174 c 0.658519,-0.3228 1.333286,-0.63611 2.035535,-0.93224 0.769483,-0.32449 1.564061,-0.63274 2.381766,-0.92398 0.817703,-0.29124 1.658813,-0.56546 2.52026,-0.82217 0.861446,-0.25671 1.743572,-0.49586 2.644282,-0.71675 1.801421,-0.44179 3.67683,-0.8104 5.608442,-1.10123 1.931614,-0.29083 3.919392,-0.50394 5.945375,-0.63355 0.270084,-0.0173 0.708401,-0.0424 0.978752,-0.0548 0.945785,-0.0434 2.071249,-0.0679 3.218924,-0.0729 0.270621,-10e-4 0.709152,-10e-4 0.979786,0 1.147678,0.005 2.273139,0.0296 3.218924,0.0729 0.270338,0.0124 0.708668,0.0375 0.978752,0.0548 2.025983,0.12961 4.01376,0.34272 5.945373,0.63355 1.931614,0.29083 3.807022,0.65944 5.608444,1.10123 0.90071,0.22089 1.782837,0.46004 2.644283,0.71675 0.861446,0.25671 1.702039,0.53093 2.519742,0.82217 0.817704,0.29124 1.6128,0.59949 2.382284,0.92398 0.702249,0.29613 1.377014,0.60944 2.035534,0.93224 a 31.75,31.75 0 0 0 5.926771,-18.47174 31.75,31.75 0 0 0 -31.750001,-31.75 z m 12.403378,25.64443 c 0.282784,0.002 0.549338,0.0947 0.767395,0.25321 0.218057,0.15857 0.387616,0.38334 0.476973,0.65164 l 4.454509,13.36456 c 0.05149,0.15435 0.06149,0.31021 0.03721,0.45682 -0.02428,0.14661 -0.08271,0.28374 -0.167948,0.40205 -0.08524,0.1183 -0.197284,0.21735 -0.328662,0.2868 -0.131379,0.0695 -0.282226,0.10952 -0.444935,0.10955 H 46.30213 c -0.162708,-3e-5 -0.313555,-0.0401 -0.444934,-0.10955 -0.131379,-0.0694 -0.243424,-0.1685 -0.32866,-0.2868 -0.08524,-0.11831 -0.143669,-0.25544 -0.167949,-0.40205 -0.02429,-0.14661 -0.01429,-0.30247 0.03721,-0.45682 l 4.454506,-13.36456 c 0.05518,-0.16567 0.143553,-0.30967 0.255284,-0.42736 0.11173,-0.11768 0.24688,-0.20921 0.39429,-0.27027 0.147412,-0.0611 0.307517,-0.0915 0.469738,-0.0873 0.162221,0.004 0.326499,0.0433 0.482658,0.12144 l 8.216554,4.10828 c 0.37887,0.18942 0.787516,0.29975 1.201994,0.32917 0.414478,0.0294 0.834787,-0.0221 1.236617,-0.15606 l 13.364558,-4.45451 c 0.1384,-0.0462 0.283505,-0.0692 0.429431,-0.0682 z" />
      <g
         id="g1143"
         style="opacity:0.835;filter:url(#filter1261)">
        <path
           id="path1139"
           style="opacity:1;fill:#ffffff;fill-opacity:1;stroke-width:20.0315;paint-order:fill markers stroke"
           d="m -93.105469,356.93945 c -0.551531,-0.004 -1.09996,0.0832 -1.623047,0.25782 l -50.511714,16.83593 c -1.51873,0.50648 -3.1073,0.70105 -4.67383,0.58985 -1.56653,-0.11121 -3.11102,-0.52821 -4.54297,-1.24414 l -31.05469,-15.52735 c -0.59021,-0.2953 -1.2111,-0.44305 -1.82422,-0.45898 -0.61312,-0.0159 -1.21824,0.0993 -1.77539,0.33008 -0.55714,0.23076 -1.06794,0.57669 -1.49023,1.02148 -0.42229,0.4448 -0.7563,0.98908 -0.96485,1.61524 l -16.83593,50.51171 c -0.1946,0.58336 -0.2324,1.17246 -0.14063,1.72657 0.0918,0.5541 0.31261,1.07238 0.63477,1.51953 0.32215,0.44715 0.74563,0.8215 1.24218,1.08398 0.49655,0.26249 1.06668,0.41395 1.68164,0.41406 h 130.000005 c 0.614962,-1.1e-4 1.185091,-0.15157 1.681641,-0.41406 0.49655,-0.26248 0.920033,-0.63683 1.242187,-1.08398 0.322154,-0.44715 0.542993,-0.96543 0.634766,-1.51953 0.09177,-0.55411 0.05397,-1.14321 -0.140625,-1.72657 l -16.835938,-50.51171 c -0.337729,-1.01407 -0.978582,-1.8636 -1.802734,-2.4629 -0.824152,-0.59929 -1.831601,-0.94832 -2.900391,-0.95703 z"
           transform="matrix(0.26458333,0,0,0.26458333,100.53758,169.32927)" />
        <path
           id="path1141"
           style="opacity:1;fill:#ffffff;fill-opacity:1;stroke-width:20.0315;paint-order:fill markers stroke"
           d="m -42.384766,449.83008 c -2.488896,-1.22004 -5.039191,-2.4042 -7.693359,-3.52344 -2.908284,-1.2264 -5.913373,-2.39144 -9.003906,-3.49219 -3.090534,-1.10074 -6.267579,-2.13718 -9.523438,-3.10742 -3.255859,-0.97023 -6.58988,-1.87411 -9.99414,-2.70898 -6.808522,-1.66975 -13.89668,-3.06291 -21.197266,-4.16211 -7.300585,-1.09921 -14.813445,-1.90469 -22.470705,-2.39453 -1.02079,-0.0654 -2.67747,-0.16017 -3.69922,-0.20703 -3.57462,-0.16366 -7.82833,-0.25499 -12.16601,-0.2754 -1.02287,-0.004 -2.68031,-0.004 -3.70313,0 -4.33767,0.0189 -8.59139,0.11136 -12.16601,0.2754 -1.0218,0.0469 -2.67843,0.14164 -3.69922,0.20703 -7.65726,0.48984 -15.17012,1.29532 -22.47071,2.39453 -7.30058,1.0992 -14.38874,2.49236 -21.19726,4.16211 -3.40426,0.83487 -6.73828,1.73875 -9.99414,2.70898 -3.25586,0.97024 -6.43486,2.00668 -9.52539,3.10742 -3.09054,1.10075 -6.09367,2.26579 -9.00195,3.49219 -2.65417,1.11924 -5.20447,2.3034 -7.69336,3.52344 a 120,120 0 0 0 97.5996,50.18554 120,120 0 0 0 97.599614,-50.18554 z"
           transform="matrix(0.26458333,0,0,0.26458333,100.53758,169.32927)" />
      </g>
    </g>
  </g>
</svg>
