<?xml version="1.0" encoding="UTF-8" standalone="no"?>
<svg
   xmlns:dc="http://purl.org/dc/elements/1.1/"
   xmlns:cc="http://creativecommons.org/ns#"
   xmlns:rdf="http://www.w3.org/1999/02/22-rdf-syntax-ns#"
   xmlns:svg="http://www.w3.org/2000/svg"
   xmlns="http://www.w3.org/2000/svg"
   id="svg16"
   version="1.1"
   viewBox="0 0 24 24">
  <metadata
     id="metadata22">
    <rdf:RDF>
      <cc:Work
         rdf:about="">
        <dc:format>image/svg+xml</dc:format>
        <dc:type
           rdf:resource="http://purl.org/dc/dcmitype/StillImage" />
        <dc:title></dc:title>
      </cc:Work>
    </rdf:RDF>
  </metadata>
  <defs
     id="defs20" />
  <g
     transform="matrix(0.31516636,0,0,0.31516636,24.974627,15.835407)"
     style="font-size:40px;line-height:1.25;font-family:sans-serif;letter-spacing:0px"
     id="text35"
     aria-label="μ">
    <path
       id="path37"
       d="M -51.705032,1.9281864 V -26.267126 a 1,1 135 0 1 1,-1 h 1.59375 a 1,1 45 0 1 1,1 v 11.59375 a 20.766948,20.766948 88.683017 0 0 0.04595,1.998559 c 0.09394,0.972453 0.331919,1.796688 0.713943,2.472705 a 4.132637,4.132637 46.889561 0 0 1.353228,1.4455625 c 0.611446,0.3941454 1.351849,0.6437033 2.221208,0.7486736 a 8.6029783,8.6029783 0.10113634 0 0 1.995742,0.00352 c 1.032824,-0.1165219 1.898387,-0.4229072 2.596689,-0.919156 a 4.579014,4.579014 131.75065 0 0 1.321143,-1.4801829 c 0.469627,-0.827481 0.752329,-1.864317 0.848107,-3.110509 a 26.071827,26.071827 91.054819 0 0 0.03681,-1.999019 v -10.753906 a 1,1 135 0 1 1,-1 h 1.59375 a 1,1 45 0 1 1,1 v 14.835937 a 11.006098,11.006098 87.752012 0 0 0.07834,1.9955731 1.4361187,1.4361187 49.97824 0 0 1.066291,1.2697759 1.6494238,1.6494238 174.07329 0 0 0.749904,-0.077848 c 0.859375,-0.3515625 0.859375,-0.3515625 0.859375,-0.3515625 v 1.890625 a 1.5284086,1.5284086 121.9281 0 1 -0.897335,1.4400539 5.5217711,5.5217711 165.33871 0 1 -1.604952,0.4198928 3.9613929,3.9613929 4.2012008 0 1 -1.397541,-0.1026584 c -0.11081,-0.02987 -0.217669,-0.065241 -0.320579,-0.1061145 a 2.8253962,2.8253962 42.981513 0 1 -1.431168,-1.3337224 c -0.09069,-0.1718113 -0.172178,-0.3581468 -0.244451,-0.5590066 a 0.49348292,0.49348292 10.501184 0 0 -0.842528,-0.1561712 c -0.302421,0.3641246 -0.630161,0.6853167 -0.983221,0.9635763 a 5.8395125,5.8395125 151.52029 0 1 -1.749147,0.9489075 c -0.43872,0.1478355 -0.907448,0.2506578 -1.406186,0.308467 a 8.9756183,8.9756183 179.88547 0 1 -1.996074,0.00399 c -0.530994,-0.057278 -1.025373,-0.1621567 -1.483136,-0.3146362 a 5.3668695,5.3668695 28.786963 0 1 -1.742404,-0.9573786 c -0.308522,-0.2567832 -0.589263,-0.5509261 -0.842225,-0.8824286 a 0.29689678,0.29689678 163.55401 0 0 -0.539521,0.1592604 l 0,8.8007809 a 1,1 135 0 1 -1,1 l -1.59375,0 a 1,1 45 0 1 -1,-1 z" />
  </g>
</svg>
