<?xml version="1.0" encoding="UTF-8" standalone="no"?>
<svg
   xmlns:dc="http://purl.org/dc/elements/1.1/"
   xmlns:cc="http://creativecommons.org/ns#"
   xmlns:rdf="http://www.w3.org/1999/02/22-rdf-syntax-ns#"
   xmlns:svg="http://www.w3.org/2000/svg"
   xmlns="http://www.w3.org/2000/svg"
   id="svg16"
   version="1.1"
   viewBox="0 0 24 24">
  <metadata
     id="metadata22">
    <rdf:RDF>
      <cc:Work
         rdf:about="">
        <dc:format>image/svg+xml</dc:format>
        <dc:type
           rdf:resource="http://purl.org/dc/dcmitype/StillImage" />
        <dc:title></dc:title>
      </cc:Work>
    </rdf:RDF>
  </metadata>
  <defs
     id="defs20" />
  <g
     transform="matrix(0.31516636,0,0,0.31516636,17.215426,11.405515)"
     style="font-size:40px;line-height:1.25;font-family:sans-serif;letter-spacing:0px"
     id="text26"
     aria-label="α">
    <path
       id="path28"
       d="m -13.547408,1.6653979 -0.485151,-2.54704153 a 22.606933,22.606933 78.018921 0 0 -0.415018,-1.95568327 c -0.574249,-2.0222272 -1.619335,-3.2054446 -3.135258,-3.5496521 a 4.9217752,4.9217752 0.54938066 0 0 -1.987116,-0.019054 c -0.910242,0.1687197 -1.657358,0.5832473 -2.241347,1.2435828 a 6.546246,6.546246 120.77135 0 0 -1.019476,1.7121321 c -0.584352,1.3136991 -0.926383,2.76586703 -1.026094,4.3565039 a 18.821737,18.821737 90.276397 0 0 -0.0096,1.9990607 c 0.08088,1.8513511 0.393941,3.3466802 0.939195,4.4859872 a 5.9003422,5.9003422 54.836976 0 0 1.146351,1.6272858 c 0.639963,0.6400295 1.377475,1.0481066 2.212538,1.2242306 a 3.7118026,3.7118026 178.24567 0 0 1.975597,-0.06051 c 1.084631,-0.3728869 1.980499,-1.3942692 2.687602,-3.0641466 a 26.491924,26.491924 109.66607 0 0 0.672894,-1.8828316 l 0.552672,-1.6398943 a 3.8105589,3.8105589 93.920184 0 0 0.132255,-1.9299696 z m 2.518936,-5.9416059 1.2933832,-3.8278922 a 1.3934243,1.3934243 144.33464 0 1 1.3201051,-0.947382 h 1.203125 A 0.7177635,0.7177635 54.330595 0 1 -6.53183,-8.104055 l -3.3639637,9.9606143 a 3.8650328,3.8650328 94.155152 0 0 -0.1402953,1.9311531 l 0.421898,2.309892 a 7.076726,7.076726 75.583314 0 0 0.4958616,1.9289209 3.8935058,3.8935058 49.665991 0 0 1.2698089,1.4955069 2.9145575,2.9145575 8.5220702 0 0 1.6991618,0.2546106 0.87080467,0.87080467 54.293309 0 1 0.71875,1.0000002 v 1.046875 a 1,1 135 0 1 -1,1 H -6.5790462 A 8.1031274,8.1031274 3.5307553 0 1 -8.5689135,12.70074 C -9.1634801,12.551036 -9.741749,12.264431 -10.30372,11.840923 a 4.445257,4.445257 48.021145 0 1 -1.325188,-1.472863 c -0.117006,-0.227232 -0.221091,-0.4792288 -0.312256,-0.7559888 a 0.36778601,0.36778601 5.433565 0 0 -0.673528,-0.064065 c -0.427595,0.804903 -0.961716,1.556544 -1.602364,2.254921 a 3.9005401,3.9005401 143.16677 0 1 -1.577783,1.18176 c -0.464571,0.152697 -1.058228,0.251934 -1.780968,0.297712 a 14.283119,14.283119 0.22604762 0 1 -1.998392,-0.0079 c -2.166005,-0.166619 -3.887456,-0.891684 -5.164354,-2.175197 a 8.0363595,8.0363595 52.791064 0 1 -1.206276,-1.5886941 c -1.028592,-1.7397072 -1.599009,-3.941506 -1.711251,-6.6053966 a 24.237721,24.237721 89.974116 0 1 -9.03e-4,-1.9994149 c 0.114443,-2.8307937 0.727028,-5.049696 1.837755,-6.6567069 a 8.7689171,8.7689171 131.81073 0 1 1.33038,-1.487389 c 1.433521,-1.3035591 3.072002,-2.0533657 4.915444,-2.2494198 a 10.041779,10.041779 179.79804 0 1 1.996888,-0.00704 c 3.140654,0.2936684 5.142791,2.0240367 6.006411,5.1911047 a 0.28349502,0.28349502 2.8991877 0 0 0.541633,0.02743 z" />
  </g>
</svg>
